#!OML:ASF F:\VICON\USERDATA\Patient Classification 1\PLAYGROUND\JustinFriday\JustinFriday.ASF
:FULLY-SPECIFIED
:DEGREES
2678
root -20.8782 27.61 -10.1508 330.37 78.5554 -56.5215
lowerback 34.432 1.5157 -3.41523
upperback 9.42824 1.77425 1.47719
thorax -7.17525 1.13993 2.68382
lowerneck 2.14862 -11.5616 -10.2705
upperneck -28.7217 -12.2962 21.7187
head -6.69314 -6.75413 9.64207
rclavicle 1.35174e-014 2.3059e-014
rhumerus 38.892 7.16649 -62.0008
rradius 83.5258
rwrist 8.89174
rhand -28.0983 -363.719
rfingers 7.12502
rthumb -1.48083 -393.693
lclavicle 1.35174e-014 2.3059e-014
lhumerus 34.5982 -2.89487 58.5575
lradius 89.6773
lwrist -21.3988
lhand -6.03351 -5.71551
lfingers 7.12502
lthumb 19.8001 23.296
rfemur -87.5702 2.40299 30.4484
rtibia 94.5855
rfoot -25.8641 -3.91872
rtoes -0.2671
lfemur -36.6498 5.33891 -15.2199
ltibia 22.8779
lfoot -6.7338 -0.193943
ltoes 3.8226
2679
root -20.8352 27.5921 -10.1476 331.359 78.7456 -55.6111
lowerback 34.6043 1.80107 -3.24468
upperback 9.44972 2.21078 1.7295
thorax -7.25308 1.34347 2.696
lowerneck 2.58822 -11.5119 -11.5474
upperneck -29.1382 -12.4408 21.4117
head -6.80835 -6.67216 9.81258
rclavicle -4.45278e-014 -7.15625e-015
rhumerus 38.2976 6.71165 -60.6909
rradius 84.1359
rwrist 7.59185
rhand -29.6714 -364.74
rfingers 7.12502
rthumb -3.00014 -394.699
lclavicle -4.45278e-014 -7.15625e-015
lhumerus 34.7899 -3.76619 59.3095
lradius 90.2645
lwrist -21.4236
lhand -5.98869 -5.58078
lfingers 7.12502
lthumb 19.8432 23.4262
rfemur -87.3709 2.44103 30.0272
rtibia 93.9251
rfoot -25.8922 -2.92701
rtoes 2.87531
lfemur -37.2505 9.04858 -17.2678
ltibia 23.2221
lfoot -6.40002 -4.55069
ltoes 1.11707
2680
root -20.788 27.6162 -10.1341 328.221 78.4577 -58.2432
lowerback 35.447 2.08157 -2.52819
upperback 9.38836 2.81732 1.9189
thorax -7.52701 1.63289 2.27453
lowerneck 2.11773 -12.0118 -13.6816
upperneck -27.8305 -13.0057 23.9877
head -5.73219 -7.0129 10.8114
rclavicle -8.74653e-015 1.43125e-014
rhumerus 36.9053 5.13861 -60.8365
rradius 84.8437
rwrist 9.74042
rhand -26.4703 -362.781
rfingers 7.12502
rthumb 0.0915243 -392.761
lclavicle -8.74653e-015 1.43125e-014
lhumerus 34.9063 -4.82634 59.2127
lradius 90.8456
lwrist -21.0704
lhand -6.00823 -5.31339
lfingers 7.12502
lthumb 19.8244 23.6956
rfemur -85.8962 2.73195 30.4989
rtibia 92.9992
rfoot -26.1724 -2.12668
rtoes 9.2642
lfemur -36.1128 4.67872 -14.4483
ltibia 23.6387
lfoot -7.09885 0.275874
ltoes -0.535686
2681
root -20.7471 27.628 -10.0874 325.778 78.1609 -60.6013
lowerback 35.4298 2.18784 -2.49364
upperback 9.43774 2.99101 2.14846
thorax -7.49059 1.71137 2.4358
lowerneck 3.01073 -12.2283 -11.4065
upperneck -28.827 -13.4715 21.9657
head -6.55249 -7.29105 9.93578
rclavicle -5.1684e-014 -1.43125e-014
rhumerus 36.5297 6.00088 -60.6902
rradius 85.4627
rwrist 7.45659
rhand -29.9293 -365.744
rfingers 7.12502
rthumb -3.24915 -395.699
lclavicle -5.1684e-014 -1.43125e-014
lhumerus 34.4481 -4.86806 58.9898
lradius 91.2826
lwrist -20.9278
lhand -6.40425 -4.81427
lfingers 7.12502
lthumb 19.4437 24.2336
rfemur -84.9227 3.37023 30.8911
rtibia 92.0909
rfoot -26.1279 -2.78305
rtoes 8.117
lfemur -36.1481 5.41186 -13.8325
ltibia 24.1025
lfoot -7.37169 -0.742284
ltoes 7.08439
2682
root -20.7115 27.6073 -10.0275 327.316 78.2123 -59.3917
lowerback 34.7969 2.55388 -3.19116
upperback 9.49827 3.17187 1.80171
thorax -7.33408 1.79529 2.3844
lowerneck 3.5525 -11.8683 -11.6783
upperneck -28.8175 -12.8651 22.7513
head -6.64478 -7.07056 10.3227
rclavicle 8.18993e-014 4.96962e-014
rhumerus 35.8093 4.81107 -62.1794
rradius 85.669
rwrist 9.82293
rhand -26.5536 -363.599
rfingers 7.12502
rthumb 0.0110586 -393.579
lclavicle 8.18993e-014 4.96962e-014
lhumerus 34.4761 -5.39906 58.1211
lradius 91.6454
lwrist -20.8451
lhand -6.73208 -4.50456
lfingers 7.12502
lthumb 19.1285 24.5748
rfemur -84.8365 4.11997 30.4353
rtibia 91.3832
rfoot -25.7005 -3.31754
rtoes 6.37603
lfemur -37.3302 11.6121 -16.5715
ltibia 24.3013
lfoot -5.59757 -7.61815
ltoes 13.4889
2683
root -20.6685 27.6094 -10.0046 329.001 78.37 -57.8234
lowerback 34.8416 2.72437 -3.56854
upperback 9.35434 3.23057 1.71146
thorax -7.5179 1.82243 2.46162
lowerneck 3.38443 -12.2359 -14.4713
upperneck -27.4038 -13.459 25.2278
head -5.5199 -7.37182 11.4004
rclavicle -8.74653e-015 -3.97569e-016
rhumerus 35.1315 4.69532 -62.2205
rradius 86.0024
rwrist 9.78665
rhand -26.2858 -362.201
rfingers 7.12502
rthumb 0.269686 -392.181
lclavicle -8.74653e-015 -3.97569e-016
lhumerus 34.1229 -5.74712 58.0365
lradius 91.8757
lwrist -20.9188
lhand -6.84495 -4.55358
lfingers 7.12502
lthumb 19.0199 24.5365
rfemur -84.3688 4.52771 29.8301
rtibia 90.5974
rfoot -25.3862 -3.15436
rtoes 7.29495
lfemur -37.1271 9.84326 -16.1013
ltibia 24.5017
lfoot -6.25562 -5.85092
ltoes 12.9029
2684
root -20.6194 27.6321 -10.0189 329.208 78.7163 -57.7112
lowerback 35.229 2.32049 -3.0011
upperback 9.10665 2.8616 1.32741
thorax -7.73842 1.6572 1.88143
lowerneck 3.98048 -11.879 -13.1127
upperneck -28.0632 -13.0455 23.6672
head -6.21955 -7.15327 10.8106
rclavicle -1.51076e-014 9.54166e-015
rhumerus 34.4947 4.68695 -62.6188
rradius 86.6497
rwrist 10.4538
rhand -25.6143 -362.227
rfingers 7.12502
rthumb 0.918231 -392.204
lclavicle -1.51076e-014 9.54166e-015
lhumerus 33.6657 -5.83696 57.9099
lradius 92.1993
lwrist -21.1115
lhand -6.86009 -4.62009
lfingers 7.12502
lthumb 19.0054 24.4714
rfemur -83.639 4.48487 29.217
rtibia 89.7291
rfoot -25.2716 -3.02531
rtoes 7.66624
lfemur -36.5405 5.49796 -14.5368
ltibia 24.3644
lfoot -7.28344 -1.74464
ltoes 13.6283
2685
root -20.5685 27.6447 -10.0271 327.384 79.0085 -59.5941
lowerback 34.9521 2.08992 -2.59682
upperback 9.45655 2.76769 1.48431
thorax -7.37306 1.61557 1.88024
lowerneck 4.44514 -12.0502 -11.6937
upperneck -29.4721 -13.366 21.9407
head -7.01846 -7.25516 10.182
rclavicle -2.38542e-014 -1.78906e-014
rhumerus 34.1699 4.39749 -62.129
rradius 87.5166
rwrist 10.3836
rhand -24.9397 -362.069
rfingers 7.12502
rthumb 1.56983 -392.042
lclavicle -2.38542e-014 -1.78906e-014
lhumerus 33.5822 -5.77933 58.4511
lradius 92.6403
lwrist -21.3883
lhand -6.90558 -4.6153
lfingers 7.12502
lthumb 18.9616 24.4805
rfemur -82.8643 3.87224 29.4104
rtibia 89.0149
rfoot -25.8378 -2.86987
rtoes 6.86878
lfemur -36.3567 3.64381 -13.652
ltibia 24.392
lfoot -7.35159 -0.778194
ltoes 17.6916
2686
root -20.5119 27.6614 -10.0024 324.434 79.1304 -61.9553
lowerback 35.8408 1.95687 -2.33952
upperback 9.51009 2.71399 1.53643
thorax -7.49791 1.60163 1.8003
lowerneck 4.40878 -12.1172 -10.9699
upperneck -29.5906 -13.3769 21.7932
head -7.13053 -7.31593 10.0312
rclavicle -7.95139e-016 2.26615e-014
rhumerus 33.5919 4.53445 -61.8883
rradius 88.6247
rwrist 9.79864
rhand -25.3836 -363.854
rfingers 7.12502
rthumb 1.14107 -393.83
lclavicle -7.95139e-016 2.26615e-014
lhumerus 33.4292 -6.04188 58.4376
lradius 92.9149
lwrist -21.3767
lhand -7.2023 -4.54484
lfingers 7.12502
lthumb 18.6762 24.5786
rfemur -81.2671 4.45739 29.1154
rtibia 88.4024
rfoot -27.3989 -4.3023
rtoes 4.66416
lfemur -35.6112 4.19034 -13.6597
ltibia 24.4862
lfoot -6.89098 -1.7699
ltoes 18.6593
2687
root -20.4563 27.611 -9.92562 323.192 78.6262 -63.5775
lowerback 35.304 2.23667 -2.55149
upperback 9.53079 2.986 1.54755
thorax -7.30405 1.7224 1.83891
lowerneck 3.94554 -12.3079 -10.2252
upperneck -29.0315 -13.6141 21.569
head -6.91489 -7.47609 9.73031
rclavicle 6.36111e-015 2.78299e-015
rhumerus 32.9147 3.94789 -62.6267
rradius 89.1206
rwrist 10.9309
rhand -23.0149 -361.927
rfingers 7.12502
rthumb 3.42872 -391.879
lclavicle 6.36111e-015 2.78299e-015
lhumerus 33.263 -6.40943 58.1172
lradius 93.1783
lwrist -21.4156
lhand -7.34476 -4.61015
lfingers 7.12502
lthumb 18.5392 24.5264
rfemur -80.9972 4.50266 30.4923
rtibia 88.148
rfoot -28.946 -4.71845
rtoes 2.84795
lfemur -36.8855 11.4113 -15.8755
ltibia 25.0278
lfoot -4.9431 -8.4867
ltoes 15.041
2688
root -20.3984 27.6282 -9.89425 320.764 78.2515 -66.0255
lowerback 35.433 2.11654 -1.99836
upperback 9.54742 3.01103 1.37698
thorax -7.30382 1.73912 1.35635
lowerneck 3.6523 -12.4985 -10.5817
upperneck -28.3419 -13.8405 22.3146
head -6.48306 -7.63285 9.92078
rclavicle -2.38542e-014 -1.43125e-014
rhumerus 32.1515 4.46339 -62.6586
rradius 90.2891
rwrist 9.71322
rhand -24.7975 -364.695
rfingers 7.12502
rthumb 1.70711 -394.668
lclavicle -2.38542e-014 -1.43125e-014
lhumerus 33.0031 -6.49654 57.4986
lradius 93.6733
lwrist -21.4826
lhand -7.19292 -4.62396
lfingers 7.12502
lthumb 18.6853 24.4986
rfemur -79.8298 4.90554 31.1847
rtibia 87.5742
rfoot -30.578 -6.15871
rtoes 0.150688
lfemur -36.7642 10.9334 -14.7976
ltibia 25.4479
lfoot -5.49614 -7.8941
ltoes 10.8224
2689
root -20.3457 27.6096 -9.87839 322.806 78.742 -64.5672
lowerback 34.7243 2.05639 -2.2931
upperback 9.4898 2.80634 1.1935
thorax -7.22967 1.63853 1.40778
lowerneck 4.42808 -12.1325 -9.81546
upperneck -29.1995 -13.2553 21.8803
head -7.12293 -7.39439 9.85132
rclavicle -1.90833e-014 2.98177e-014
rhumerus 31.5117 4.11613 -62.9658
rradius 90.74
rwrist 10.9052
rhand -21.8141 -361.933
rfingers 7.12502
rthumb 4.58827 -391.864
lclavicle -1.90833e-014 2.98177e-014
lhumerus 32.269 -6.50765 57.3354
lradius 94.4311
lwrist -21.4433
lhand -6.98785 -4.33825
lfingers 7.12502
lthumb 18.8825 24.7652
rfemur -80.1154 2.77157 32.1672
rtibia 87.3748
rfoot -31.7431 -5.91387
rtoes -3.7499
lfemur -37.1712 7.86029 -14.1716
ltibia 25.934
lfoot -6.26915 -4.79292
ltoes 9.30786
2690
root -20.2926 27.6045 -9.862 326.559 79.4703 -61.4077
lowerback 34.2619 2.1487 -3.06995
upperback 9.16746 2.62183 1.08968
thorax -7.42201 1.54444 1.78361
lowerneck 4.21698 -12.0469 -15.5132
upperneck -27.0303 -13.3213 26.2417
head -5.37173 -7.36015 11.9742
rclavicle -1.43125e-014 -5.56597e-015
rhumerus 30.6799 4.91289 -62.3718
rradius 91.6502
rwrist 9.70485
rhand -23.3416 -363.734
rfingers 7.12502
rthumb 3.11322 -393.691
lclavicle -1.43125e-014 -5.56597e-015
lhumerus 31.3667 -6.82741 57.8531
lradius 95.0871
lwrist -21.6034
lhand -6.62438 -4.12003
lfingers 7.12502
lthumb 19.232 24.949
rfemur -80.518 2.67914 30.9687
rtibia 87.178
rfoot -32.6438 -6.20495
rtoes -4.42535
lfemur -37.7191 6.88767 -14.9899
ltibia 25.9771
lfoot -6.44883 -3.83612
ltoes 8.59199
